<svg xmlns="http://www.w3.org/2000/svg" viewBox="0 0 1600 900" role="img" aria-label="PORSCHE 911 illustration">
  <defs>
    <radialGradient id="bg" cx="70%" cy="20%" r="90%"><stop offset="0" stop-color="#2a2c2f"/><stop offset="1" stop-color="#050505"/></radialGradient>
    <linearGradient id="body" x1="0" y1="0" x2="0" y2="1"><stop offset="0" stop-color="#C8102E"/><stop offset="1" stop-color="#C8102E" stop-opacity="0.72"/></linearGradient>
    <linearGradient id="glass" x1="0" y1="0" x2="1" y2="0"><stop offset="0" stop-color="#9fb3c8" stop-opacity="0.55"/><stop offset="1" stop-color="#1b2430" stop-opacity="0.85"/></linearGradient>
  </defs>
  <rect width="1600" height="900" fill="url(#bg)"/>
  <text x="800" y="300" text-anchor="middle" font-family="Inter, Arial, sans-serif" font-weight="900" font-size="96" fill="#ffffff" fill-opacity="0.05" letter-spacing="8">PORSCHE 911</text>
  <ellipse cx="800" cy="640" rx="640" ry="26" fill="#000" opacity="0.6"/>
  <path d="M180 560 C190 520 250 500 330 490 L520 420 C590 392 700 380 800 384 C900 388 1000 420 1090 470 L1300 500 C1370 512 1410 530 1420 560 L1420 600 L180 600 Z" fill="url(#body)" stroke="#ffffff22" stroke-width="2"/>
  <path d="M560 430 C620 405 700 398 790 400 C870 402 950 424 1010 460 L560 470 Z" fill="url(#glass)"/>
  <rect x="180" y="548" width="1240" height="6" fill="#EC0618" opacity="0.85"/>
  <g fill="#0c0c0d" stroke="#3a3c40" stroke-width="10">
    <circle cx="430" cy="600" r="78"/><circle cx="1180" cy="600" r="78"/>
  </g>
  <g fill="none" stroke="#8e9197" stroke-width="6"><circle cx="430" cy="600" r="40"/><circle cx="1180" cy="600" r="40"/></g>
  <text x="80" y="840" font-family="Inter, Arial, sans-serif" font-size="22" fill="#8e9197" letter-spacing="4">ILLUSTRATION · NOT A PHOTOGRAPH OF THE ACTUAL VEHICLE</text>
</svg>
